<svg xmlns="http://www.w3.org/2000/svg" xmlns:xlink="http://www.w3.org/1999/xlink" contentStyleType="text/css" data-diagram-type="DESCRIPTION" height="593px" preserveAspectRatio="none" style="width:710px;height:593px;background:#FFFFFF;" version="1.1" viewBox="0 0 710 593" width="710px" zoomAndPan="magnify"><?plantuml 1.2026.6?><defs/><g><!--cluster Actor h? th?ng--><g class="cluster" data-qualified-name="Actor h. th.ng" data-source-line="14" id="ent0009"><path d="M8.5,99.15 L127.3242,99.15 A3.75,3.75 0 0 1 129.8242,101.65 L136.8242,121.4469 L357.29,121.4469 A2.5,2.5 0 0 1 359.79,123.9469 L359.79,370.65 A2.5,2.5 0 0 1 357.29,373.15 L8.5,373.15 A2.5,2.5 0 0 1 6,370.65 L6,101.65 A2.5,2.5 0 0 1 8.5,99.15" fill="none" style="stroke:#000000;stroke-width:1.5;"/><line style="stroke:#000000;stroke-width:1.5;" x1="6" x2="136.8242" y1="121.4469" y2="121.4469"/><text fill="#000000" font-family="sans-serif" font-size="14" font-weight="700" lengthAdjust="spacing" textLength="117.8242" x="10" y="114.1451">Actor h&#7879; th&#7889;ng</text></g><!--entity AI--><g class="entity" data-qualified-name="Actor h. th.ng.AI" data-source-line="15" id="ent0010"><ellipse cx="88.6624" cy="296.1469" fill="#F1F1F1" rx="16" ry="16" style="stroke:#181818;stroke-width:0.5;"/><path d="M88.6624,316.1469 C92.6624,316.1469 95.6624,316.1469 99.6624,312.1469 C107.6624,312.1469 115.6624,320.1469 115.6624,328.1469 L115.6624,332.1469 C115.6624,336.1469 111.6624,340.1469 107.6624,340.1469 L69.6624,340.1469 C65.6624,340.1469 61.6624,336.1469 61.6624,332.1469 L61.6624,328.1469 C61.6624,320.1469 69.6624,312.1469 77.6624,312.1469 C81.6624,316.1469 84.6624,316.1469 88.6624,316.1469" fill="#F1F1F1" style="stroke:#181818;stroke-width:0.5;"/><text fill="#000000" font-family="sans-serif" font-size="14" lengthAdjust="spacing" textLength="71.0049" x="53.16" y="353.642">D&#7883;ch v&#7909; AI</text><text fill="#000000" font-family="sans-serif" font-size="14" font-style="italic" lengthAdjust="spacing" textLength="67.7441" x="54.7904" y="276.3451">&#171;system&#187;</text></g><!--entity Judge--><g class="entity" data-qualified-name="Actor h. th.ng.Judge" data-source-line="16" id="ent0011"><ellipse cx="88.6606" cy="167.1469" fill="#F1F1F1" rx="16" ry="16" style="stroke:#181818;stroke-width:0.5;"/><path d="M88.6606,187.1469 C92.6606,187.1469 95.6606,187.1469 99.6606,183.1469 C107.6606,183.1469 115.6606,191.1469 115.6606,199.1469 L115.6606,203.1469 C115.6606,207.1469 111.6606,211.1469 107.6606,211.1469 L69.6606,211.1469 C65.6606,211.1469 61.6606,207.1469 61.6606,203.1469 L61.6606,199.1469 C61.6606,191.1469 69.6606,183.1469 77.6606,183.1469 C81.6606,187.1469 84.6606,187.1469 88.6606,187.1469" fill="#F1F1F1" style="stroke:#181818;stroke-width:0.5;"/><text fill="#000000" font-family="sans-serif" font-size="14" lengthAdjust="spacing" textLength="133.3213" x="22" y="224.642">H&#7879; th&#7889;ng ch&#7845;m b&#224;i</text><text fill="#000000" font-family="sans-serif" font-size="14" font-style="italic" lengthAdjust="spacing" textLength="67.7441" x="54.7886" y="147.3451">&#171;system&#187;</text></g><!--entity Notify--><g class="entity" data-qualified-name="Actor h. th.ng.Notify" data-source-line="17" id="ent0012"><ellipse cx="279.5539" cy="296.1469" fill="#F1F1F1" rx="16" ry="16" style="stroke:#181818;stroke-width:0.5;"/><path d="M279.5539,316.1469 C283.5539,316.1469 286.5539,316.1469 290.5539,312.1469 C298.5539,312.1469 306.5539,320.1469 306.5539,328.1469 L306.5539,332.1469 C306.5539,336.1469 302.5539,340.1469 298.5539,340.1469 L260.5539,340.1469 C256.5539,340.1469 252.5539,336.1469 252.5539,332.1469 L252.5539,328.1469 C252.5539,320.1469 260.5539,312.1469 268.5539,312.1469 C272.5539,316.1469 275.5539,316.1469 279.5539,316.1469" fill="#F1F1F1" style="stroke:#181818;stroke-width:0.5;"/><text fill="#000000" font-family="sans-serif" font-size="14" lengthAdjust="spacing" textLength="128.4678" x="215.32" y="353.642">D&#7883;ch v&#7909; th&#244;ng b&#225;o</text><text fill="#000000" font-family="sans-serif" font-size="14" font-style="italic" lengthAdjust="spacing" textLength="67.7441" x="245.6818" y="276.3451">&#171;system&#187;</text></g><!--entity Timer--><g class="entity" data-qualified-name="Actor h. th.ng.Timer" data-source-line="18" id="ent0013"><ellipse cx="279.5551" cy="167.1469" fill="#F1F1F1" rx="16" ry="16" style="stroke:#181818;stroke-width:0.5;"/><path d="M279.5551,187.1469 C283.5551,187.1469 286.5551,187.1469 290.5551,183.1469 C298.5551,183.1469 306.5551,191.1469 306.5551,199.1469 L306.5551,203.1469 C306.5551,207.1469 302.5551,211.1469 298.5551,211.1469 L260.5551,211.1469 C256.5551,211.1469 252.5551,207.1469 252.5551,203.1469 L252.5551,199.1469 C252.5551,191.1469 260.5551,183.1469 268.5551,183.1469 C272.5551,187.1469 275.5551,187.1469 279.5551,187.1469" fill="#F1F1F1" style="stroke:#181818;stroke-width:0.5;"/><text fill="#000000" font-family="sans-serif" font-size="14" lengthAdjust="spacing" textLength="84.4102" x="237.35" y="224.642">B&#7897; &#273;&#7883;nh th&#7901;i</text><text fill="#000000" font-family="sans-serif" font-size="14" font-style="italic" lengthAdjust="spacing" textLength="67.7441" x="245.683" y="147.3451">&#171;system&#187;</text></g><!--entity Guest--><g class="entity" data-qualified-name="Guest" data-source-line="4" id="ent0001"><ellipse cx="88.66" cy="22" fill="#F1F1F1" rx="16" ry="16" style="stroke:#181818;stroke-width:0.5;"/><path d="M88.66,42 C92.66,42 95.66,42 99.66,38 C107.66,38 115.66,46 115.66,54 L115.66,58 C115.66,62 111.66,66 107.66,66 L69.66,66 C65.66,66 61.66,62 61.66,58 L61.66,54 C61.66,46 69.66,38 77.66,38 C81.66,42 84.66,42 88.66,42" fill="#F1F1F1" style="stroke:#181818;stroke-width:0.5;"/><text fill="#000000" font-family="sans-serif" font-size="14" lengthAdjust="spacing" textLength="43.2031" x="67.0584" y="79.4951">Kh&#225;ch</text></g><!--entity Learner--><g class="entity" data-qualified-name="Learner" data-source-line="5" id="ent0002"><ellipse cx="88.6607" cy="464" fill="#F1F1F1" rx="16" ry="16" style="stroke:#181818;stroke-width:0.5;"/><path d="M88.6607,484 C92.6607,484 95.6607,484 99.6607,480 C107.6607,480 115.6607,488 115.6607,496 L115.6607,500 C115.6607,504 111.6607,508 107.6607,508 L69.6607,508 C65.6607,508 61.6607,504 61.6607,500 L61.6607,496 C61.6607,488 69.6607,480 77.6607,480 C81.6607,484 84.6607,484 88.6607,484" fill="#F1F1F1" style="stroke:#181818;stroke-width:0.5;"/><text fill="#000000" font-family="sans-serif" font-size="14" lengthAdjust="spacing" textLength="60.9014" x="58.21" y="521.4951">H&#7885;c vi&#234;n</text></g><!--entity GMember--><g class="entity" data-qualified-name="GMember" data-source-line="6" id="ent0003"><ellipse cx="279.5504" cy="408" fill="#F1F1F1" rx="16" ry="16" style="stroke:#181818;stroke-width:0.5;"/><path d="M279.5504,428 C283.5504,428 286.5504,428 290.5504,424 C298.5504,424 306.5504,432 306.5504,440 L306.5504,444 C306.5504,448 302.5504,452 298.5504,452 L260.5504,452 C256.5504,452 252.5504,448 252.5504,444 L252.5504,440 C252.5504,432 260.5504,424 268.5504,424 C272.5504,428 275.5504,428 279.5504,428" fill="#F1F1F1" style="stroke:#181818;stroke-width:0.5;"/><text fill="#000000" font-family="sans-serif" font-size="14" lengthAdjust="spacing" textLength="122.2607" x="218.42" y="465.4951">Th&#224;nh vi&#234;n nh&#243;m</text></g><!--entity GManager--><g class="entity" data-qualified-name="GManager" data-source-line="7" id="ent0004"><ellipse cx="549.8246" cy="408" fill="#F1F1F1" rx="16" ry="16" style="stroke:#181818;stroke-width:0.5;"/><path d="M549.8246,428 C553.8246,428 556.8246,428 560.8246,424 C568.8246,424 576.8246,432 576.8246,440 L576.8246,444 C576.8246,448 572.8246,452 568.8246,452 L530.8246,452 C526.8246,452 522.8246,448 522.8246,444 L522.8246,440 C522.8246,432 530.8246,424 538.8246,424 C542.8246,428 545.8246,428 549.8246,428" fill="#F1F1F1" style="stroke:#181818;stroke-width:0.5;"/><text fill="#000000" font-family="sans-serif" font-size="14" lengthAdjust="spacing" textLength="98.3691" x="500.64" y="465.4951">Qu&#7843;n l&#253; nh&#243;m</text></g><!--entity Admin--><g class="entity" data-qualified-name="Admin" data-source-line="8" id="ent0005"><ellipse cx="279.5505" cy="520" fill="#F1F1F1" rx="16" ry="16" style="stroke:#181818;stroke-width:0.5;"/><path d="M279.5505,540 C283.5505,540 286.5505,540 290.5505,536 C298.5505,536 306.5505,544 306.5505,552 L306.5505,556 C306.5505,560 302.5505,564 298.5505,564 L260.5505,564 C256.5505,564 252.5505,560 252.5505,556 L252.5505,552 C252.5505,544 260.5505,536 268.5505,536 C272.5505,540 275.5505,540 279.5505,540" fill="#F1F1F1" style="stroke:#181818;stroke-width:0.5;"/><text fill="#000000" font-family="sans-serif" font-size="14" lengthAdjust="spacing" textLength="91.041" x="234.03" y="577.4951">Qu&#7843;n tr&#7883; vi&#234;n</text></g><g class="entity" data-qualified-name="GMN14" data-source-line="22" id="ent0015"><path d="M403.79,503.45 L403.79,558.8484 A0,0 0 0 0 403.79,558.8484 L695.854,558.8484 A0,0 0 0 0 695.854,558.8484 L695.854,513.45 L685.854,503.45 L553.82,503.45 L549.82,469.21 L545.82,503.45 L403.79,503.45 A0,0 0 0 0 403.79,503.45" fill="#FEFFDD" style="stroke:#181818;stroke-width:0.5;"/><path d="M685.854,503.45 L685.854,513.45 L695.854,513.45 L685.854,503.45" fill="#FEFFDD" style="stroke:#181818;stroke-width:0.5;"/><text fill="#000000" font-family="sans-serif" font-size="13" lengthAdjust="spacing" textLength="99.9375" x="409.79" y="520.5169">Vai tr&#242; nh&#243;m l&#224;</text><text fill="#000000" font-family="sans-serif" font-size="13" font-weight="700" lengthAdjust="spacing" textLength="105.0728" x="513.8598" y="520.5169">theo ng&#7919; c&#7843;nh</text><text fill="#000000" font-family="sans-serif" font-size="13" lengthAdjust="spacing" textLength="29.2944" x="623.0649" y="520.5169">(&#167;3):</text><text fill="#000000" font-family="sans-serif" font-size="13" lengthAdjust="spacing" textLength="271.064" x="409.79" y="535.6497">c&#249;ng m&#7897;t ng&#432;&#7901;i c&#243; th&#7875; l&#224; Qu&#7843;n l&#253; nh&#243;m A</text><text fill="#000000" font-family="sans-serif" font-size="13" lengthAdjust="spacing" textLength="150.5029" x="409.79" y="550.7825">v&#224; Th&#224;nh vi&#234;n nh&#243;m B.</text></g><!--reverse link Learner to GMember--><g class="link" data-entity-1="ent0002" data-entity-2="ent0003" data-link-type="extension" data-source-line="10" id="lnk6"><path d="M136.8468,472.1611 C163.2768,464.3211 185.34,457.79 218.27,448.02" fill="none" id="Learner-backto-GMember" style="stroke:#181818;stroke-width:1;"/><polygon fill="none" points="119.59,477.28,138.5531,477.9133,135.1405,466.4088,119.59,477.28" style="stroke:#181818;stroke-width:1;stroke-linejoin:miter;stroke-miterlimit:10;"/></g><!--reverse link GMember to GManager--><g class="link" data-entity-1="ent0003" data-entity-2="ent0004" data-link-type="extension" data-source-line="11" id="lnk7"><path d="M359.09,430.15 C407.31,430.15 455.9,430.15 500.57,430.15" fill="none" id="GMember-backto-GManager" style="stroke:#181818;stroke-width:1;"/><polygon fill="none" points="341.09,430.15,359.09,436.15,359.09,424.15,341.09,430.15" style="stroke:#181818;stroke-width:1;stroke-linejoin:miter;stroke-miterlimit:10;"/></g><!--reverse link Learner to Admin--><g class="link" data-entity-1="ent0002" data-entity-2="ent0005" data-link-type="extension" data-source-line="12" id="lnk8"><path d="M136.8473,500.137 C167.5373,509.237 198.38,518.38 233.63,528.83" fill="none" id="Learner-backto-Admin" style="stroke:#181818;stroke-width:1;"/><polygon fill="none" points="119.59,495.02,135.1417,505.8895,138.553,494.3846,119.59,495.02" style="stroke:#181818;stroke-width:1;stroke-linejoin:miter;stroke-miterlimit:10;"/></g><?plantuml-src RL9DIrj15Ds_Nt78gWRYfZi9GgIWjYgKIlVpvaqoWvaPUUz62Qqh5rsKBbnsKKWeeT1DYxhHXnj7-Z_UF-bz7p7Hk9c1UywvvyozanqPTonIOI4a-VG3ZOSAubHbtgfegFe4yaZDG1CIaof9nhieghXelTDXAdKB8iFsI6Kqh-yK-JU94nD-kmhSKo9rAft3XpfCdAvnE1skRDrYNzbumNe_Acv_EWp3tHEES6AmGgAqoByk6VOIQpXcuulkvqxdiNrppujDloVKHduiv163QFKgCrtaNq1yNhX12vyYe0dnXiqblwV8P-ZjrW5sqUrcuuoKtTnSC7UMMa3gudPc4OU9gJHlHmcRlIHRDY0ThbaSXwclL0UUJ7_yecohoB_ZuOB5FEtIzKTjT6Xi-TA5uYoAd2U5s1Dv2zzVp0NuA0pFDrpMM-1zJD1karOURb3aVo3B3UXs6w_kVxrUss2533USqB8xCUVVtzAOYrTLXlEgm_FbeiUw4mPM_mQsrYFb4fG9_mC0?></g></svg>